<?xml version="1.0" standalone="no"?>
<!DOCTYPE svg PUBLIC "-//W3C//DTD SVG 20010904//EN"
 "http://www.w3.org/TR/2001/REC-SVG-20010904/DTD/svg10.dtd">
<svg version="1.0" xmlns="http://www.w3.org/2000/svg"
 width="2048.000000pt" height="1059.000000pt" viewBox="0 0 2048.000000 1059.000000"
 preserveAspectRatio="xMidYMid meet">

<g transform="translate(-145.000000,1059.000000) scale(0.110000,-0.100000)"
fill="#000000" stroke="none">
<path d="M0 5295 l0 -5295 10240 0 10240 0 0 5295 0 5295 -10240 0 -10240 0 0
-5295z m11535 1535 c152 -426 347 -971 432 -1210 163 -457 201 -543 286 -636
46 -51 132 -104 169 -104 13 0 18 -8 18 -30 l0 -30 -440 0 -440 0 0 28 c0 26
4 28 62 39 71 14 106 36 131 84 33 61 19 146 -62 369 -38 107 -117 328 -176
490 -58 162 -183 511 -277 774 l-172 479 79 231 c83 245 104 300 110 295 2 -2
128 -353 280 -779z m-1517 574 c76 -214 526 -1472 592 -1654 27 -74 83 -232
125 -350 82 -232 126 -327 183 -403 38 -49 109 -103 149 -113 17 -5 23 -13 23
-35 l0 -29 -460 0 -460 0 0 29 c0 27 2 28 58 34 155 16 222 77 222 199 -1 62
-23 133 -214 663 -319 883 -419 1164 -444 1235 l-25 75 89 267 c49 146 92 263
95 260 4 -4 34 -84 67 -178z m-762 -2081 c-4 -16 -12 -64 -18 -108 -16 -112 5
-181 71 -246 56 -54 116 -78 219 -86 71 -6 72 -6 72 -34 l0 -29 -395 0 -395 0
0 30 c0 24 4 30 23 30 37 0 120 45 158 86 69 74 121 170 169 317 l22 67 40 0
c39 0 40 -1 34 -27z"/>
</g>
</svg>
